<svg class="icon" viewBox="0 0 1024 1024" version="1.1" xmlns="http://www.w3.org/2000/svg" p-id="1880" height="128" width="128"><path d="M610.93376 806.028288 321.108992 516.202496l289.825792-289.741824 23.831552 23.852032L369.050624 516.24448l266.155008 265.851904L610.93376 806.028288zM610.93376 806.028288M488.3968 84.11648c-238.657536 0-432.128 193.470464-432.128 432.128 0 238.657536 193.470464 432.128 432.128 432.128 238.657536 0 432.128-193.470464 432.128-432.128C920.5248 277.586944 727.05536 84.11648 488.3968 84.11648zM488.3968 920.725504c-223.388672 0-404.481024-181.092352-404.481024-404.481024 0-223.388672 181.092352-404.48 404.481024-404.48 223.388672 0 404.481024 181.092352 404.481024 404.48C892.877824 739.633152 711.786496 920.725504 488.3968 920.725504z" p-id="1881"></path></svg>